<?xml version="1.0" encoding="UTF-8" standalone="no"?>
<!DOCTYPE svg PUBLIC "-//W3C//DTD SVG 1.1//EN" "http://www.w3.org/Graphics/SVG/1.1/DTD/svg11.dtd">
<!-- Created with Vectornator (http://vectornator.io/) -->
<svg height="100%" stroke-miterlimit="10" style="fill-rule:nonzero;clip-rule:evenodd;stroke-linecap:round;stroke-linejoin:round;" version="1.1" viewBox="0 0 64 64" width="100%" xml:space="preserve" xmlns="http://www.w3.org/2000/svg" xmlns:xlink="http://www.w3.org/1999/xlink">
<defs>
<linearGradient gradientTransform="matrix(1.40436 0 0 1.40436 -14.2338 -14.1987)" gradientUnits="userSpaceOnUse" id="LinearGradient" x1="17.8247" x2="34.3466" y1="17.1857" y2="32.9844">
<stop offset="0.142552" stop-color="#058f8a"/>
<stop offset="1" stop-color="#000000"/>
</linearGradient>
<linearGradient gradientTransform="matrix(1.40436 0 0 1.40436 -14.2338 -14.1109)" gradientUnits="userSpaceOnUse" id="LinearGradient_2" x1="32.5409" x2="44.2251" y1="32.9844" y2="17.7724">
<stop offset="0.142552" stop-color="#058f8a"/>
<stop offset="1" stop-color="#000000"/>
</linearGradient>
</defs>
<clipPath id="ArtboardFrame">
<rect height="64" width="64" x="0" y="0"/>
</clipPath>
<g clip-path="url(#ArtboardFrame)" id="Layer-1">
<path d="M30.0475 2.43421C13.6524 2.4342 0.38037 15.7501 0.38037 32.1452C0.38037 48.5403 13.6524 61.8124 30.0475 61.8124C30.2742 61.8124 30.4803 61.7296 30.7058 61.7246L34.0013 59.5253L30.7058 57.1604C30.4821 57.1664 30.2726 57.2043 30.0475 57.2043C16.441 57.2043 5.42729 46.1905 5.42729 32.5841C5.42729 18.9776 16.441 7.96388 30.0475 7.96388C30.2726 7.96388 30.4821 8.00178 30.7058 8.00777L27.7651 5.3857L30.7058 2.52198C30.4803 2.51692 30.2742 2.43421 30.0475 2.43421Z" fill="url(#LinearGradient)" fill-rule="nonzero" opacity="1" stroke="#058f8a" stroke-linecap="butt" stroke-linejoin="round" stroke-width="0.3"/>
<path d="M34.8277 2.60976L31.4654 5.24966L34.8277 8.09554C48.1238 8.45167 58.8335 19.2905 58.8335 32.6719C58.8335 44.3805 50.6124 54.1376 39.6552 56.6338C38.0898 56.9904 36.4897 57.2037 34.8277 57.2482L37.4019 59.5583L34.8277 61.8124C50.9101 61.4523 63.8804 48.4014 63.8804 32.233C63.8804 16.0646 50.9101 2.97104 34.8277 2.60976Z" fill="url(#LinearGradient_2)" fill-rule="nonzero" opacity="1" stroke="#058f8a" stroke-linecap="butt" stroke-linejoin="round" stroke-width="0.3"/>
</g>
</svg>
